<svg width="100" height="125" viewBox="0 0 100 125" fill="none" xmlns="http://www.w3.org/2000/svg">
<path d="M99.0952 100.857C99.5535 101.91 99.5746 103.103 99.1537 104.172C98.7328 105.241 97.9044 106.099 96.8509 106.557L57.126 123.839C56.0725 124.297 54.88 124.318 53.8109 123.897C52.7418 123.476 51.8837 122.648 51.4254 121.594C50.9671 120.541 50.946 119.348 51.3669 118.279C51.7878 117.21 52.6162 116.352 53.6697 115.894L93.3946 98.6123C94.4482 98.154 95.6407 98.133 96.7097 98.5539C97.7788 98.9748 98.6369 99.8031 99.0952 100.857ZM91.3074 28.6562C94.2054 35.2711 95.5539 42.4606 95.25 49.6761C94.946 56.8916 92.9977 63.9423 89.5537 70.29C88.9033 71.4623 88.5296 72.7678 88.4611 74.1067C88.3926 75.4455 88.6311 76.7823 89.1584 78.0149L90.4545 80.9942C91.3712 83.1014 91.4132 85.4864 90.5714 87.6245C89.7296 89.7627 88.073 91.4788 85.9658 92.3955L54.1859 106.221C52.0788 107.137 49.6938 107.179 47.5557 106.338C45.4175 105.496 43.7014 103.839 42.7847 101.732L41.4886 98.7526C40.9594 97.5383 40.1588 96.4616 39.1484 95.6051C38.1381 94.7486 36.9447 94.1352 35.6602 93.8119C28.6927 92.0228 22.2234 88.6723 16.7419 84.0139C11.2604 79.3555 6.91026 73.5113 4.02072 66.9236C-6.40596 43.3088 4.14997 15.2842 27.5478 4.42643C33.3131 1.75138 39.5552 0.256658 45.9069 0.030238C52.2585 -0.196182 58.5913 0.850274 64.5325 3.10801C70.4736 5.36576 75.9031 8.78917 80.5013 13.1767C85.0996 17.5643 88.7737 22.8274 91.3074 28.6562ZM83.3624 32.1125C81.2893 27.3432 78.283 23.0369 74.5206 19.4469C70.7581 15.857 66.3155 13.056 61.4543 11.2089C56.593 9.3617 51.4114 8.5057 46.2143 8.69126C41.0173 8.87681 35.9099 10.1002 31.1927 12.2893C12.0256 21.1708 3.41295 44.0922 11.9419 63.4127C14.3069 68.8006 17.8666 73.5799 22.3515 77.3889C26.8364 81.198 32.1289 83.9369 37.8287 85.3984C40.3899 86.0536 42.7672 87.2862 44.7787 89.0018C46.7902 90.7174 48.3824 92.8705 49.4336 95.2963L50.7297 98.2757L62.6471 93.0912L52.9933 70.9L31.8604 62.584C30.7907 62.1629 29.9321 61.3341 29.4735 60.2799C29.015 59.2258 28.9939 58.0326 29.415 56.963C29.8362 55.8933 30.665 55.0347 31.7191 54.5762C32.7733 54.1176 33.9664 54.0965 35.0361 54.5176L53.8076 61.9121L61.1949 43.1378C61.4034 42.6082 61.7142 42.1248 62.1096 41.7153C62.5049 41.3057 62.977 40.9781 63.499 40.751C64.021 40.5239 64.5825 40.4019 65.1517 40.3919C65.7208 40.3818 66.2863 40.484 66.816 40.6925C67.3456 40.901 67.829 41.2118 68.2385 41.6072C68.6481 42.0025 68.9757 42.4746 69.2028 42.9966C69.4299 43.5186 69.5519 44.0801 69.5619 44.6493C69.572 45.2184 69.4698 45.7839 69.2613 46.3136L60.9382 67.4437L70.5921 89.635L82.5095 84.4505L81.2134 81.4712C80.1601 79.0379 79.6771 76.396 79.8012 73.7474C79.9253 71.0989 80.6533 68.5137 81.9295 66.1896C84.7484 60.9939 86.3429 55.2229 86.5912 49.317C86.8395 43.4111 85.7352 37.5265 83.3624 32.1125Z" fill="#705598"/>
</svg>
